<svg width="26" height="23" viewBox="0 0 26 23" fill="none" xmlns="http://www.w3.org/2000/svg">
<path d="M12.8929 2.57442C12.9212 2.60401 12.9604 2.62074 13.0013 2.62074C13.0422 2.62074 13.0814 2.60401 13.1097 2.57442C14.3727 1.2538 16.1229 0.24375 18.1013 0.24375C21.959 0.24375 25.2471 3.38322 25.2471 7.4626C25.2471 10.2736 24.1459 12.7511 22.6101 14.8539C21.0765 16.9536 19.0674 18.7395 17.1376 20.1944C16.4008 20.7499 15.6591 21.2595 14.9831 21.6341C14.3426 21.9891 13.6326 22.2979 13.0013 22.2979C12.37 22.2979 11.66 21.9891 11.0195 21.6341C10.3435 21.2595 9.60176 20.7499 8.86502 20.1944C6.93523 18.7395 4.92609 16.9536 3.39251 14.8539C1.85673 12.7511 0.755469 10.2736 0.755469 7.4626C0.755469 3.38322 4.04356 0.24375 7.9013 0.24375C9.87968 0.24375 11.6299 1.2538 12.8929 2.57442ZM7.9013 2.25625C4.87252 2.25625 2.58047 4.68111 2.58047 7.4626C2.58047 9.66719 3.44077 11.7121 4.8138 13.592C6.18899 15.4748 8.03577 17.1317 9.89456 18.5331C10.5983 19.0636 11.2649 19.518 11.8384 19.8358C12.1469 20.0068 12.3936 20.1181 12.5827 20.187C12.7678 20.2545 12.9086 20.2854 13.0013 20.2854C13.094 20.2854 13.2348 20.2545 13.4199 20.187C13.609 20.1181 13.8557 20.0068 14.1642 19.8358C14.7377 19.518 15.4043 19.0636 16.1081 18.5331C17.9668 17.1317 19.8136 15.4748 21.1888 13.592C22.5618 11.7121 23.4221 9.66719 23.4221 7.4626C23.4221 4.68111 21.1301 2.25625 18.1013 2.25625C16.3454 2.25625 14.7252 3.39439 13.7211 4.81553C13.5462 5.06304 13.2794 5.20355 13.0013 5.20355C12.7232 5.20355 12.4564 5.06304 12.2815 4.81553C11.2774 3.39439 9.65724 2.25625 7.9013 2.25625Z" fill="#505050" stroke="white" stroke-width="0.3" stroke-linecap="round" stroke-linejoin="round"/>
</svg>
