<svg width="20" height="14" viewBox="0 0 20 14" fill="none" xmlns="http://www.w3.org/2000/svg">
<path d="M0.494 13V0.526H8.378V2.452H2.762V5.638H7.748V7.564H2.762V13H0.494ZM14.1701 13.144C13.5101 13.144 12.8441 13.12 12.1721 13.072C11.5001 13.036 10.9121 12.952 10.4081 12.82V0.705999C10.6721 0.657999 10.9541 0.615999 11.2541 0.579999C11.5541 0.532 11.8601 0.496 12.1721 0.471999C12.4841 0.448 12.7901 0.429999 13.0901 0.417999C13.4021 0.405999 13.6961 0.399999 13.9721 0.399999C14.7281 0.399999 15.4301 0.459999 16.0781 0.579999C16.7261 0.687999 17.2841 0.873999 17.7521 1.138C18.2321 1.402 18.6041 1.75 18.8681 2.182C19.1321 2.614 19.2641 3.148 19.2641 3.784C19.2641 4.372 19.1201 4.876 18.8321 5.296C18.5561 5.716 18.1661 6.052 17.6621 6.304C18.4181 6.556 18.9761 6.928 19.3361 7.42C19.6961 7.912 19.8761 8.536 19.8761 9.292C19.8761 10.576 19.4081 11.542 18.4721 12.19C17.5361 12.826 16.1021 13.144 14.1701 13.144ZM12.6401 7.384V11.182C12.8921 11.206 13.1621 11.224 13.4501 11.236C13.7381 11.248 14.0021 11.254 14.2421 11.254C14.7101 11.254 15.1421 11.224 15.5381 11.164C15.9461 11.104 16.2941 11.002 16.5821 10.858C16.8821 10.702 17.1161 10.498 17.2841 10.246C17.4641 9.994 17.5541 9.67 17.5541 9.274C17.5541 8.566 17.2961 8.074 16.7801 7.798C16.2641 7.522 15.5501 7.384 14.6381 7.384H12.6401ZM12.6401 5.602H14.2421C15.1061 5.602 15.7841 5.482 16.2761 5.242C16.7681 4.99 17.0141 4.546 17.0141 3.91C17.0141 3.31 16.7561 2.884 16.2401 2.632C15.7361 2.38 15.0761 2.254 14.2601 2.254C13.9121 2.254 13.6001 2.26 13.3241 2.272C13.0601 2.284 12.8321 2.302 12.6401 2.326V5.602Z" fill="#292929"/>
</svg>
