<svg width="26" height="26" viewBox="0 0 26 26" fill="none" xmlns="http://www.w3.org/2000/svg">
<path fill-rule="evenodd" clip-rule="evenodd" d="M16.3793 17.8819C12.6248 20.889 7.12889 20.6523 3.64845 17.1719C-0.085941 13.4375 -0.085941 7.38284 3.64845 3.64845C7.38284 -0.0859411 13.4375 -0.0859404 17.1719 3.64845C20.6523 7.12889 20.889 12.6247 17.8819 16.3793L25.1857 23.6831C25.6007 24.098 25.6007 24.7708 25.1857 25.1857C24.7708 25.6006 24.0981 25.6006 23.6831 25.1857L16.3793 17.8819ZM5.15105 15.6693C2.24653 12.7647 2.24653 8.05557 5.15105 5.15105C8.05558 2.24652 12.7647 2.24653 15.6693 5.15105C18.5717 8.05344 18.5738 12.7578 15.6757 15.6629C15.6735 15.665 15.6714 15.6671 15.6692 15.6692C15.6671 15.6714 15.665 15.6735 15.6629 15.6756C12.7578 18.5738 8.05345 18.5717 5.15105 15.6693Z" fill="#FDFDFD"/>
</svg>
