<svg width="22" height="25" viewBox="0 0 22 25" fill="none" xmlns="http://www.w3.org/2000/svg">
<path fill-rule="evenodd" clip-rule="evenodd" d="M4.97982 6.6263C4.97982 3.30109 7.67544 0.605469 11.0007 0.605469C14.3259 0.605469 17.0215 3.30109 17.0215 6.6263C17.0215 9.95152 14.3259 12.6471 11.0007 12.6471C7.67544 12.6471 4.97982 9.95152 4.97982 6.6263ZM11.0007 2.73047C8.84904 2.73047 7.10482 4.47469 7.10482 6.6263C7.10482 8.77791 8.84904 10.5221 11.0007 10.5221C13.1523 10.5221 14.8965 8.77791 14.8965 6.6263C14.8965 4.47469 13.1523 2.73047 11.0007 2.73047Z" fill="#FDFDFD"/>
<path fill-rule="evenodd" clip-rule="evenodd" d="M5.33398 16.8971C3.57358 16.8971 2.14648 18.3242 2.14648 20.0846V21.768C2.14648 21.7937 2.16506 21.8155 2.19036 21.8197C8.02526 22.7723 13.976 22.7723 19.8109 21.8197C19.8362 21.8155 19.8548 21.7937 19.8548 21.768V20.0846C19.8548 18.3242 18.4277 16.8971 16.6673 16.8971H16.1844C16.1471 16.8971 16.11 16.903 16.0745 16.9146L14.8483 17.315C12.3482 18.1314 9.65313 18.1314 7.15296 17.315L5.92682 16.9146C5.89132 16.903 5.85422 16.8971 5.81688 16.8971H5.33398ZM0.0214844 20.0846C0.0214844 17.1506 2.39997 14.7721 5.33398 14.7721H5.81688C6.07825 14.7721 6.33797 14.8135 6.58642 14.8946L7.81257 15.295C9.88414 15.9714 12.1172 15.9714 14.1887 15.295L15.4149 14.8946C15.6633 14.8135 15.9231 14.7721 16.1844 14.7721H16.6673C19.6013 14.7721 21.9798 17.1506 21.9798 20.0846V21.768C21.9798 22.8351 21.2065 23.7449 20.1534 23.9169C14.0917 24.9065 7.90963 24.9065 1.84795 23.9169C0.79482 23.7449 0.0214844 22.8351 0.0214844 21.768V20.0846Z" fill="#FDFDFD"/>
</svg>
