<svg width="163" height="63" viewBox="0 0 163 63" fill="none" xmlns="http://www.w3.org/2000/svg">
<path d="M0.28125 21.1427C0.28125 17.0034 1.2411 13.9309 3.16081 11.9253C5.08054 9.91966 8.0241 8.91681 11.9915 8.91681C13.6126 8.91681 15.2763 9.06614 16.9827 9.36492C18.7318 9.6636 20.3316 10.197 21.7821 10.9651C23.2325 11.6906 24.4057 12.7148 25.3015 14.0376C26.2401 15.3604 26.7093 17.0674 26.7093 19.1584C26.7093 21.4628 26.1974 23.6391 25.1735 25.6875C24.1924 27.6931 22.9339 29.5921 21.3981 31.3843C19.905 33.1339 18.2413 34.7769 16.4069 36.3131C14.6152 37.8066 12.93 39.2362 11.3516 40.6017C11.2663 40.7725 11.1809 41.1352 11.0956 41.6899C11.053 42.2019 11.0316 42.5434 11.0316 42.7141C11.0316 44.1223 11.4369 45.5305 12.2475 46.9388C13.1007 48.3896 14.0179 49.8405 14.999 51.2915C15.9803 52.785 16.8761 54.3212 17.6867 55.9001C18.4973 57.479 18.9025 59.1219 18.9025 60.8289C18.9025 61.853 18.6891 62.45 18.2626 62.6216C17.836 62.8346 16.9401 62.9416 15.575 62.9416C14.7217 62.5997 13.8686 61.789 13.0153 60.5089C12.2048 59.2713 11.3729 57.7351 10.5198 55.9001C9.70919 54.0652 8.89864 51.9955 8.08809 49.6912C7.32021 47.4295 6.57364 45.1251 5.84842 42.7781C5.16585 40.3884 4.50462 38.0414 3.86471 35.737C3.26747 33.3899 2.73422 31.235 2.26495 29.272C1.79568 27.309 1.36909 25.6234 0.985145 24.2152C0.643862 22.7643 0.409223 21.7402 0.28125 21.1427ZM5.72044 21.7188C5.72044 22.3589 5.7631 23.2978 5.84842 24.5353C5.93375 25.7301 6.10439 26.925 6.36034 28.1198C6.65897 29.3147 7.08557 30.3601 7.64016 31.2563C8.19474 32.1098 8.96262 32.5365 9.94378 32.5365C11.2663 32.5365 12.5888 32.0884 13.9112 31.1923C15.2763 30.2961 16.4709 29.1653 17.4947 27.7998C18.5613 26.4343 19.4144 24.9833 20.0543 23.4471C20.7368 21.8682 21.0781 20.4386 21.0781 19.1584C21.0781 18.0915 20.8222 17.2594 20.3103 16.662C19.7984 16.0219 19.1371 15.5312 18.3266 15.1898C17.5587 14.8057 16.7268 14.571 15.831 14.4857C14.935 14.3577 14.0819 14.2937 13.2713 14.2937C10.8396 14.2937 8.96262 14.955 7.64016 16.278C6.36034 17.5582 5.72044 19.3718 5.72044 21.7188ZM63.2428 36.5051C61.6218 37.6146 60.2139 38.6174 59.0194 39.5136C57.8677 40.3671 56.7371 41.0925 55.628 41.6899C54.5188 42.2874 53.3243 42.7354 52.0444 43.0342C50.8073 43.3328 49.2716 43.4822 47.4372 43.4822C43.4698 43.4822 40.5262 42.4367 38.6064 40.3457C36.6867 38.212 35.7269 35.0542 35.7269 30.8723C35.7269 29.2507 35.9401 27.565 36.3668 25.8154C36.7934 24.0658 37.412 22.3376 38.2225 20.6307C39.0757 18.881 40.0782 17.2381 41.2301 15.7018C42.3819 14.1229 43.6831 12.7361 45.1335 11.5412C46.5839 10.3464 48.1197 9.40753 49.7409 8.72476C51.4046 7.99938 53.1537 7.63658 54.988 7.63658C58.0595 7.93536 60.4699 8.70345 62.2189 9.94097C63.968 11.1359 65.2905 12.6934 66.1863 14.6137C67.0823 16.4913 67.7009 18.6037 68.0421 20.9507C68.3834 23.255 68.6393 25.6448 68.81 28.1198C69.0233 30.5948 69.2793 33.0699 69.5779 35.545C69.8766 38.02 70.4951 40.3031 71.4336 42.394C70.879 43.8023 70.3457 44.7837 69.8338 45.3384C69.3646 45.9359 68.8313 46.0426 68.234 45.6585C67.6369 45.2745 66.9329 44.3357 66.1224 42.8421C65.3545 41.3485 64.3946 39.2362 63.2428 36.5051ZM41.1661 31.0002C41.1661 33.4326 41.614 35.2249 42.5099 36.3771C43.4484 37.4866 45.0908 38.0414 47.4372 38.0414C49.1862 38.0414 50.85 37.7426 52.4284 37.1452C54.0495 36.5051 55.4573 35.6517 56.6518 34.5848C57.8463 33.4753 58.8061 32.1524 59.5314 30.6162C60.2566 29.0799 60.6192 27.373 60.6192 25.4954C60.6192 24.7273 60.6405 23.6604 60.6832 22.2949C60.7258 20.8866 60.6405 19.4998 60.4272 18.1342C60.2139 16.7687 59.8087 15.5952 59.2114 14.6137C58.6142 13.5895 57.7183 13.0775 56.5238 13.0775C54.3054 13.0775 52.2577 13.6535 50.3807 14.8057C48.5036 15.9153 46.8826 17.3447 45.5175 19.0944C44.1523 20.844 43.0858 22.7856 42.3179 24.9193C41.5501 27.0103 41.1661 29.0373 41.1661 31.0002ZM79.2993 17.3662C79.2993 16.6407 79.4486 15.9792 79.7472 15.3818C80.0885 14.7844 80.6645 14.4857 81.475 14.4857C81.5176 14.4857 81.5816 14.507 81.6669 14.5497C81.7523 14.5497 81.8376 14.5497 81.9229 14.5497C82.0082 14.5497 82.0936 14.5497 82.1789 14.5497C82.3069 14.6351 82.5415 14.8484 82.8828 15.1898C83.2667 15.5312 83.5013 15.7873 83.5867 15.9579C83.7146 16.214 83.9706 16.7687 84.3546 17.6221C84.7812 18.4756 85.2717 19.4785 85.8263 20.6307C86.4236 21.7402 87.0209 22.935 87.6181 24.2152C88.258 25.4527 88.8553 26.6476 89.4098 27.7998C90.0071 28.9519 90.4977 29.9547 90.8816 30.8083C91.3082 31.6191 91.6068 32.1524 91.7775 32.4085C91.8201 32.5365 92.0121 32.7926 92.3534 33.1766C92.7374 33.5179 93.0147 33.7313 93.1852 33.8167C93.5265 33.2193 93.8678 32.3231 94.2091 31.1282C94.5504 29.9334 94.8917 28.6319 95.2329 27.2236C95.6169 25.7728 96.0008 24.3005 96.3848 22.8069C96.7688 21.2707 97.1954 19.9052 97.6646 18.7103C98.1765 17.4728 98.7311 16.47 99.3283 15.7018C99.9256 14.891 100.608 14.4857 101.376 14.4857C102.485 14.4857 103.53 14.9124 104.512 15.7658C105.535 16.6194 106.495 17.7288 107.391 19.0944C108.33 20.4599 109.205 21.9962 110.015 23.7032C110.868 25.3674 111.658 27.0316 112.383 28.6959C113.15 30.3174 113.854 31.8324 114.494 33.2406C115.176 34.6061 115.838 35.6943 116.478 36.5051C116.989 36.3345 117.416 35.9076 117.758 35.2249C118.099 34.5421 118.354 33.838 118.526 33.1125C118.739 32.3444 118.888 31.6404 118.974 31.0002C119.059 30.3174 119.123 29.8694 119.166 29.6561C119.208 29.1866 119.272 28.4612 119.357 27.4797C119.443 26.4556 119.528 25.3034 119.614 24.0231C119.741 22.743 119.848 21.4201 119.934 20.0545C120.019 18.689 120.104 17.3662 120.189 16.0859C120.317 14.8057 120.402 13.6749 120.446 12.6934C120.531 11.6692 120.573 10.9438 120.573 10.517C120.659 10.517 120.872 10.4957 121.213 10.4531C121.554 10.3677 121.789 10.3251 121.917 10.3251C122.514 10.3251 123.047 10.3891 123.517 10.517C123.986 10.645 124.349 11.0932 124.604 11.8613C124.604 12.1599 124.604 12.6934 124.604 13.4616C124.647 14.2297 124.669 15.0618 124.669 15.9579C124.711 16.8114 124.732 17.6435 124.732 18.4543C124.775 19.2224 124.797 19.7559 124.797 20.0545C124.797 20.7373 124.797 21.8042 124.797 23.255C124.839 24.6633 124.817 26.2422 124.732 27.9917C124.69 29.7414 124.562 31.5336 124.349 33.3686C124.135 35.1609 123.794 36.8252 123.325 38.3614C122.899 39.855 122.301 41.0925 121.533 42.074C120.766 43.0128 119.806 43.4822 118.654 43.4822C117.331 43.4822 116.094 43.1622 114.942 42.522C113.79 41.882 112.703 41.0284 111.678 39.9617C110.698 38.8948 109.758 37.7213 108.863 36.4411C107.967 35.1183 107.135 33.7953 106.367 32.4725C105.642 31.1069 104.96 29.8267 104.32 28.6319C103.722 27.3944 103.189 26.3488 102.72 25.4954C102.379 26.2635 102.059 27.2236 101.76 28.3758C101.504 29.528 101.205 30.7869 100.864 32.1524C100.523 33.4753 100.139 34.8195 99.7123 36.185C99.2857 37.508 98.7951 38.7242 98.2405 39.8336C97.7286 40.9004 97.1101 41.7752 96.3848 42.458C95.7022 43.1408 94.9131 43.4822 94.0171 43.4822C93.5905 43.4822 93.2066 43.5036 92.8654 43.5462C92.5241 43.5462 92.2041 43.5249 91.9054 43.4822C91.6068 43.3969 91.3295 43.2475 91.0735 43.0342C90.8177 42.8208 90.583 42.4794 90.3697 42.01L79.4273 18.6464C79.4273 18.6037 79.4059 18.4329 79.3633 18.1342C79.3206 17.7929 79.2993 17.5368 79.2993 17.3662ZM146.293 41.882C146.975 41.4125 147.785 40.8151 148.724 40.0897C149.705 39.3215 150.686 38.5107 151.668 37.6573C152.649 36.8038 153.566 35.9076 154.419 34.9689C155.272 34.0301 155.934 33.134 156.403 32.2804C156.914 31.3843 157.171 30.5522 157.171 29.7841C157.171 29.0159 156.787 28.3758 156.019 27.8637C154.654 27.8637 153.161 27.9277 151.539 28.0558C149.918 28.1412 148.298 28.1838 146.676 28.1838C145.055 28.1412 143.477 27.9917 141.941 27.7358C140.448 27.4797 139.104 27.0103 137.91 26.3275C136.715 25.6448 135.755 24.6846 135.03 23.4471C134.347 22.1669 134.006 20.5453 134.006 18.5824C134.006 16.278 134.432 14.2082 135.286 12.3734C136.182 10.4957 137.355 8.85279 138.805 7.44453C140.255 5.99367 141.877 4.73485 143.668 3.66798C145.503 2.5585 147.338 1.61966 149.171 0.851562C150.281 1.15023 151.305 1.68367 152.243 2.45177C153.182 3.21997 153.993 4.07338 154.676 5.01222C154.376 5.95106 153.779 6.67644 152.883 7.18857C152.031 7.7006 151.028 8.14871 149.876 8.53271C148.766 8.91681 147.593 9.32221 146.356 9.74892C145.12 10.1756 143.988 10.7518 142.965 11.4772C141.983 12.1599 141.152 13.0775 140.469 14.2297C139.787 15.3391 139.445 16.8114 139.445 18.6464C139.445 20.0119 139.787 21.0147 140.469 21.6548C141.152 22.2949 142.048 22.743 143.157 22.999C144.266 23.2123 145.525 23.2978 146.933 23.255C148.34 23.1697 149.769 23.063 151.219 22.935C152.713 22.8069 154.163 22.743 155.571 22.743C156.979 22.7003 158.237 22.8709 159.347 23.255C160.456 23.5964 161.33 24.1725 161.97 24.9833C162.652 25.7941 162.994 26.989 162.994 28.5679C162.994 29.2507 162.759 30.1255 162.29 31.1923C161.864 32.2591 161.266 33.4113 160.499 34.6488C159.774 35.8436 158.899 37.0385 157.874 38.2333C156.894 39.4282 155.848 40.5164 154.739 41.4979C153.673 42.4367 152.584 43.2262 151.476 43.8663C150.409 44.4637 149.406 44.7624 148.468 44.7624C147.573 44.7624 146.975 44.4423 146.676 43.8023C146.42 43.1622 146.293 42.522 146.293 41.882Z" fill="white"/>
</svg>
