<svg width="29" height="27" viewBox="0 0 29 27" fill="none" xmlns="http://www.w3.org/2000/svg">
<path fill-rule="evenodd" clip-rule="evenodd" d="M26.1266 3.55729H6.55877L4.88685 0.56047C4.69919 0.224093 4.34417 0.015625 3.95898 0.015625H1.83398C1.24718 0.015625 0.771484 0.491322 0.771484 1.07812C0.771484 1.66493 1.24718 2.14062 1.83398 2.14062H3.33508L4.98507 5.09813L8.79034 13.5177L8.79424 13.5263L9.1294 14.2679L5.30888 18.3431C5.03417 18.6361 4.94818 19.059 5.08663 19.436C5.22508 19.8131 5.56431 20.0798 5.96337 20.1254L9.44573 20.5234C13.8015 21.0212 18.1998 21.0212 22.5556 20.5234L26.038 20.1254C26.621 20.0588 27.0396 19.5322 26.973 18.9492C26.9063 18.3661 26.3797 17.9475 25.7967 18.0142L22.3143 18.4121C18.1189 18.8916 13.8825 18.8916 9.68701 18.4121L8.30503 18.2542L11.1091 15.2631C11.1363 15.2342 11.1615 15.2042 11.1847 15.1732L12.2512 15.3119C13.7457 15.5064 15.2564 15.5445 16.7587 15.4257C20.2628 15.1485 23.5104 13.4812 25.7777 10.7951L26.5967 9.82498C26.6242 9.7924 26.6497 9.75819 26.6731 9.72254L28.1994 7.39659C29.2812 5.74792 28.0985 3.55729 26.1266 3.55729ZM11.2637 13.0405C11.0294 13.01 10.8273 12.8612 10.7286 12.6467L10.7268 12.6425L7.58103 5.68229H26.1266C26.4083 5.68229 26.5773 5.99524 26.4227 6.23076L24.9316 8.5032L24.1539 9.42445C22.2527 11.6768 19.5295 13.0749 16.5912 13.3073C15.236 13.4145 13.8734 13.3801 12.5254 13.2047L11.2637 13.0405Z" fill="#FDFDFD"/>
<path d="M8.20899 22.3281C7.03538 22.3281 6.08399 23.2795 6.08399 24.4531C6.08399 25.6267 7.03538 26.5781 8.20899 26.5781C9.38259 26.5781 10.334 25.6267 10.334 24.4531C10.334 23.2795 9.38259 22.3281 8.20899 22.3281Z" fill="#FDFDFD"/>
<path d="M21.6673 24.4531C21.6673 23.2795 22.6187 22.3281 23.7923 22.3281C24.9659 22.3281 25.9173 23.2795 25.9173 24.4531C25.9173 25.6267 24.9659 26.5781 23.7923 26.5781C22.6187 26.5781 21.6673 25.6267 21.6673 24.4531Z" fill="#FDFDFD"/>
</svg>
