<svg width="16" height="14" viewBox="0 0 16 14" fill="none" xmlns="http://www.w3.org/2000/svg">
<path d="M0.494 0.526H2.762V13H0.494V0.526ZM11.5819 2.236C10.2979 2.236 9.31386 2.638 8.62986 3.442C7.95786 4.234 7.62186 5.338 7.62186 6.754C7.62186 7.426 7.69986 8.044 7.85586 8.608C8.02386 9.16 8.26386 9.634 8.57586 10.03C8.89986 10.426 9.29586 10.738 9.76386 10.966C10.2439 11.182 10.8019 11.29 11.4379 11.29C11.8339 11.29 12.1759 11.278 12.4639 11.254C12.7519 11.218 12.9799 11.176 13.1479 11.128V6.646H15.4159V12.64C15.1039 12.76 14.5759 12.892 13.8319 13.036C13.0879 13.18 12.2299 13.252 11.2579 13.252C10.3579 13.252 9.53586 13.108 8.79186 12.82C8.04786 12.532 7.41186 12.112 6.88386 11.56C6.36786 11.008 5.96586 10.33 5.67786 9.526C5.38986 8.722 5.24586 7.798 5.24586 6.754C5.24586 5.71 5.40186 4.786 5.71386 3.982C6.03786 3.178 6.47586 2.5 7.02786 1.948C7.57986 1.384 8.22786 0.957999 8.97186 0.669999C9.71586 0.381999 10.5079 0.237999 11.3479 0.237999C11.9239 0.237999 12.4339 0.279999 12.8779 0.364C13.3339 0.435999 13.7239 0.519999 14.0479 0.616C14.3719 0.712 14.6359 0.814 14.8399 0.922C15.0559 1.03 15.2059 1.108 15.2899 1.156L14.6059 3.01C14.2459 2.794 13.7959 2.614 13.2559 2.47C12.7279 2.314 12.1699 2.236 11.5819 2.236Z" fill="#292929"/>
</svg>
