<svg width="89" height="62" viewBox="0 0 89 62" fill="none" xmlns="http://www.w3.org/2000/svg">
<path d="M6.47785 8.11467C5.33088 7.8941 3.72216 7.25182 3.02302 6.95931C2.79385 6.86343 2.54616 6.82218 2.29864 6.84334C2.24972 6.84752 2.20065 6.84912 2.15156 6.84996C2.05425 6.85162 1.88258 6.85886 1.77454 6.88812C1.74891 6.89507 1.7207 6.90492 1.69353 6.91542C1.60722 6.94878 1.52117 6.98343 1.43194 7.00796L1.28553 7.04823C1.14742 7.08621 1.0209 7.15786 0.9173 7.25678C0.83078 7.33938 0.762322 7.43903 0.716247 7.54942L0.566681 7.90777C0.538491 7.97531 0.516056 8.04512 0.499617 8.11644L0.478072 8.20991C0.438208 8.38285 0.447052 8.56345 0.503622 8.73167C0.548807 8.86604 0.623489 8.98837 0.72008 9.09213C0.900284 9.28572 1.10989 9.52186 1.0975 9.55153C1.07737 9.59978 1.29944 9.69247 1.57541 9.8643C1.79618 10.0018 2.2596 10.1688 2.46371 10.2351L3.42604 10.6367L3.634 10.7235C4.13567 10.9329 4.6565 11.0934 5.18903 11.2026C5.39986 11.2528 5.85112 11.3656 5.96956 11.415C6.088 11.4645 6.39121 11.5155 6.52801 11.5348L7.75922 11.7088L8.82223 11.8692L9.58915 11.906L10.7126 11.9217L11.4996 11.9102L12.1386 11.837L13.1543 11.6944L13.8134 11.5729L14.7148 11.4959C15.1398 11.4472 15.5594 11.3586 15.9678 11.2313L16.0532 11.2047C16.1785 11.1816 16.3011 11.1463 16.4195 11.0992L16.45 11.0871L16.7526 10.9868L16.8944 10.9606C16.9254 10.9549 16.9562 10.948 16.9869 10.9407C17.0277 10.931 17.0893 10.9172 17.1442 10.9084C17.1963 10.9001 17.2485 10.89 17.2975 10.8705C17.3847 10.8358 17.4809 10.8304 17.5714 10.855L17.6374 10.873C17.7566 10.9054 17.8604 10.9794 17.9299 11.0816C17.9479 11.108 17.9906 11.1862 18.0176 11.2881C18.046 11.3955 18.0689 11.5191 18.1314 11.6109L18.1541 11.6442C18.1797 11.6819 18.198 11.7243 18.2185 11.765C18.2439 11.8154 18.2876 11.8811 18.3545 11.9386C18.5163 12.0778 18.5592 12.3171 18.6793 12.4935C18.7365 12.5775 18.783 12.6684 18.8178 12.7639L18.8262 12.787C18.8665 12.8979 18.9204 13.0033 18.9868 13.1008L19.2641 13.508L19.5134 13.9519L19.7828 14.3477L20.16 14.9017L20.4834 15.3766L20.5185 15.4187C20.6881 15.6222 20.8624 15.8221 21.0263 16.0303C21.0621 16.0757 21.0942 16.1181 21.1164 16.1507L21.5676 16.7356L22.0929 17.3514L22.4565 17.7297L22.8201 18.1081C22.9769 18.2867 23.1489 18.4513 23.3341 18.6003L23.6415 18.8475L24.1194 19.1603L24.8193 19.5657L25.2635 19.7511L25.7817 19.9674L26.892 20.4308C27.4333 20.6568 27.9973 20.8241 28.5742 20.9299L28.6752 20.9485L29.3479 21.0026L30.3369 21.1321L30.6908 21.1759C31.225 21.2419 31.7645 21.2552 32.3013 21.2155L33.7273 21.1309L34.4404 21.0886L34.556 21.0848C35.0657 21.0681 35.5734 21.0134 36.0749 20.921L36.7139 20.8477L37.299 20.6954L37.864 20.5913L38.3549 20.4563L38.6374 20.4042L39.0141 20.3348L39.505 20.1998L39.6778 20.1425C39.7584 20.1158 39.847 20.1334 39.9114 20.1887C39.9274 20.2025 39.9416 20.2184 39.9535 20.2359L40.0186 20.3314C40.0708 20.4081 40.1133 20.4911 40.145 20.5783L40.2186 20.7809C40.241 20.8652 40.2774 20.9451 40.3265 21.0172L40.3601 21.0666L40.4679 21.2249L40.5757 21.3831L40.58 21.3895C40.6125 21.4372 40.6319 21.4926 40.6364 21.5501C40.6408 21.6077 40.6603 21.663 40.6928 21.7107L40.751 21.7962L40.8587 21.9545L40.9665 22.1128L41.0743 22.2711L41.1821 22.4294L41.2898 22.5877L41.3501 22.6762C41.3817 22.7225 41.4191 22.7645 41.4616 22.801C41.504 22.8375 41.5415 22.8795 41.573 22.9257L41.6333 23.0143L41.7036 23.1176C41.7285 23.1542 41.7498 23.1931 41.7671 23.2339L41.7921 23.2927C41.8162 23.3496 41.8531 23.4001 41.8999 23.4403C41.9374 23.4726 41.9686 23.5115 41.992 23.5552L42.152 23.854L42.3137 24.0914L42.4754 24.3289L42.7111 24.5972L43.1623 25.1821L43.398 25.4504C43.5678 25.5965 43.7177 25.7643 43.8437 25.9495L43.9232 26.0662L44.1048 26.2841C44.1767 26.3704 44.2556 26.4505 44.3407 26.5238L44.5764 26.7921L44.8322 27.0122L45.0881 27.2323L45.3439 27.4523L45.5997 27.6724L45.8555 27.8925L46.1114 28.1126L46.5152 28.3945L46.9191 28.6763L47.6931 29.1127L48.3594 29.3908L49.3957 29.8233L49.7589 29.9749C50.2071 30.162 50.6682 30.3165 51.1386 30.4374C51.3494 30.4876 51.7858 30.5943 51.8451 30.619C51.9043 30.6437 52.5156 30.7478 52.8139 30.7968L53.8971 30.9089L54.6439 30.994L55.2426 31.0173L56.1777 31.0676L56.9446 31.1045L57.7317 31.093L58.9155 30.9639C59.7645 30.8667 60.5989 30.6687 61.4011 30.3743L62.1437 30.1018L63.0516 29.8009L63.2443 29.719C63.5173 29.6029 63.825 29.7823 63.8586 30.0769C63.8634 30.1193 63.8743 30.1607 63.891 30.1999L64.1288 30.7604L64.8903 32.2679L65.7323 33.5825L66.5945 34.8488C67.3656 35.774 68.2071 36.6382 69.1115 37.4335L69.4696 37.7484L69.8363 38.0306C70.5536 38.5828 71.34 39.0389 72.1753 39.3876L73.5123 39.9456C73.8028 40.0669 74.1135 40.1328 74.4283 40.1399L74.6257 40.1444C75.0274 40.1534 75.4218 40.0359 75.753 39.8084L75.9442 39.6771C76.1232 39.5542 76.2629 39.3822 76.3465 39.1818C76.47 38.8859 76.4618 38.5514 76.3239 38.262L76.2848 38.1801C76.209 38.0209 76.1022 37.8783 75.9708 37.7607L75.6544 37.4776C75.3672 37.2206 75.0391 37.0137 74.6835 36.8653L74.4861 36.7829C74.1381 36.6376 73.8088 36.4511 73.5052 36.2274L72.9884 35.8466C72.5746 35.5416 72.1849 35.2054 71.8226 34.8407L71.0202 34.0333L70.3658 33.2358C69.766 32.5049 69.2273 31.726 68.7551 30.9068L68.5233 30.5046C68.1768 29.9035 67.8833 29.2732 67.6462 28.6211L67.4239 28.0095C67.3243 27.7355 67.1999 27.471 67.0524 27.2195L66.872 26.9121C66.7013 26.6212 66.48 26.3631 66.2184 26.1501C66.0075 25.9783 65.7728 25.8379 65.5218 25.7331L65.4452 25.7011C65.0611 25.5408 64.6504 25.4537 64.2343 25.4443C63.7973 25.4344 63.3625 25.5104 62.9548 25.668L61.8105 26.1103L59.7122 26.7642L57.6205 27.1942C56.3448 27.3404 55.059 27.3777 53.777 27.3058L53.6651 27.2996L52.2254 27.2086L51.8798 27.1564C51.4034 27.0845 50.9376 26.9543 50.4929 26.7687C49.8585 26.5039 49.2754 26.1299 48.7702 25.6636L48.4361 25.3552C48.1226 25.0659 47.8315 24.7532 47.5652 24.4198L46.846 23.5196C45.9201 22.3605 45.121 21.1055 44.4625 19.7761L43.5861 17.7108L43.5271 17.5883C43.2313 16.9739 42.7646 16.4578 42.183 16.1018L42.0794 16.0383C41.7758 15.8524 41.4405 15.7242 41.0903 15.6599C40.6424 15.5777 40.1815 15.6024 39.7449 15.7318L39.2186 15.8879L36.9119 16.6247C35.4056 17.0503 33.8568 17.308 32.2938 17.3931L32.244 17.3958C30.9842 17.5097 29.7152 17.4681 28.4656 17.2719L28.3893 17.26C27.5511 17.0949 26.7798 16.6872 26.1714 16.0875L25.548 15.4731C25.1905 15.1208 24.8704 14.7324 24.5928 14.3141L22.9827 11.8874L21.992 9.88764L21.3045 8.41098L20.939 7.78799C20.7446 7.45671 20.4833 7.16966 20.1716 6.94521C19.8661 6.72527 19.5189 6.57014 19.1513 6.48937L19.0917 6.47625C18.5573 6.35885 18.0013 6.3871 17.4816 6.55804L14.4999 7.53887C13.3274 7.92456 12.1105 8.15926 10.8787 8.23729L10.1098 8.286C9.8951 8.2996 9.68056 8.31012 9.46543 8.31222C8.84926 8.31824 7.4767 8.30676 6.47785 8.11467Z" fill="#F48E54"/>
<path d="M15.9583 28.7475C14.8114 28.5269 13.2026 27.8846 12.5035 27.5921C12.2743 27.4962 12.0266 27.455 11.7791 27.4761C11.7302 27.4803 11.6811 27.4819 11.632 27.4828C11.5347 27.4844 11.363 27.4917 11.255 27.5209C11.2294 27.5279 11.2012 27.5377 11.174 27.5482C11.0877 27.5816 11.0016 27.6162 10.9124 27.6408L10.766 27.681C10.6279 27.719 10.5014 27.7907 10.3978 27.8896C10.3112 27.9722 10.2428 28.0718 10.1967 28.1822L10.0471 28.5406C10.019 28.6081 9.99652 28.6779 9.98009 28.7492L9.95854 28.8427C9.91868 29.0157 9.92752 29.1963 9.98409 29.3645C10.0293 29.4989 10.104 29.6212 10.2005 29.7249C10.3808 29.9185 10.5904 30.1547 10.578 30.1843C10.5578 30.2326 10.7799 30.3253 11.0559 30.4971C11.2766 30.6346 11.7401 30.8016 11.9442 30.8679L12.9065 31.2695L13.1145 31.3563C13.6161 31.5657 14.137 31.7262 14.6695 31.8354C14.8803 31.8856 15.3316 31.9984 15.45 32.0479C15.5685 32.0973 15.8717 32.1483 16.0085 32.1676L17.2397 32.3416L18.3027 32.502L19.0696 32.5388L20.193 32.5545L20.9801 32.5431L21.6191 32.4698L22.6348 32.3272L23.2939 32.2057L24.1953 32.1287C24.6203 32.08 25.0399 31.9914 25.4483 31.8641L25.5337 31.8375C25.6589 31.8145 25.7816 31.7791 25.8999 31.732L25.9305 31.7199L26.2331 31.6196L26.3749 31.5935C26.4059 31.5877 26.4366 31.5808 26.4673 31.5735C26.5082 31.5638 26.5698 31.55 26.6247 31.5412C26.6767 31.5329 26.729 31.5228 26.778 31.5033C26.8652 31.4686 26.9613 31.4632 27.0519 31.4878L27.1179 31.5058C27.2371 31.5383 27.3409 31.6122 27.4104 31.7144C27.4284 31.7408 27.471 31.819 27.498 31.9209C27.5265 32.0283 27.5494 32.1519 27.6119 32.2438L27.6345 32.277C27.6602 32.3147 27.6785 32.3571 27.699 32.3978C27.7244 32.4482 27.7681 32.5139 27.835 32.5714C27.9967 32.7106 28.0397 32.9499 28.1598 33.1263C28.217 33.2103 28.2635 33.3012 28.2983 33.3968L28.3066 33.4198C28.3469 33.5307 28.4009 33.6361 28.4673 33.7336L28.7445 34.1408L28.9938 34.5848L29.2633 34.9805L29.6405 35.5345L29.9638 36.0094L29.9989 36.0515C30.1686 36.2551 30.3428 36.4549 30.5068 36.6631C30.5426 36.7085 30.5747 36.7509 30.5969 36.7835L31.0481 37.3684L31.5734 37.9842L31.937 38.3626L32.3006 38.7409C32.4574 38.9195 32.6294 39.0841 32.8145 39.2331L33.1219 39.4803L33.5998 39.7931L34.2998 40.1986L34.744 40.3839L35.2621 40.6002L36.3725 41.0636C36.9138 41.2896 37.4777 41.4569 38.0547 41.5627L38.1556 41.5813L38.8284 41.6354L39.8174 41.765L40.1713 41.8087C40.7055 41.8747 41.2449 41.888 41.7818 41.8483L43.2078 41.7637L43.9208 41.7214L44.0365 41.7176C44.5462 41.701 45.0539 41.6462 45.5554 41.5538L46.1944 41.4806L46.7795 41.3282L47.3445 41.2241L47.8354 41.0891L48.1179 41.037L48.4946 40.9676L48.9855 40.8326L49.1583 40.7753C49.2388 40.7486 49.3275 40.7662 49.3919 40.8215C49.4079 40.8353 49.4221 40.8512 49.434 40.8687L49.499 40.9642C49.5513 41.041 49.5937 41.1239 49.6255 41.2112L49.6991 41.4137C49.7214 41.498 49.7579 41.5779 49.807 41.65L49.8406 41.6994L49.9484 41.8577L50.0562 42.016L50.0605 42.0223C50.093 42.07 50.1124 42.1254 50.1169 42.1829C50.1213 42.2405 50.1408 42.2959 50.1732 42.3436L50.2314 42.429L50.3392 42.5873L50.447 42.7456L50.5548 42.9039L50.6625 43.0622L50.7703 43.2205L50.8306 43.309C50.8621 43.3553 50.8996 43.3973 50.942 43.4338C50.9845 43.4703 51.022 43.5123 51.0535 43.5586L51.1138 43.6471L51.1841 43.7504C51.209 43.787 51.2303 43.8259 51.2476 43.8667L51.2725 43.9255C51.2966 43.9824 51.3335 44.0329 51.3803 44.0731C51.4179 44.1054 51.4491 44.1444 51.4725 44.188L51.6325 44.4868L51.7942 44.7242L51.9558 44.9617L52.1915 45.23L52.6428 45.8149L52.8785 46.0832C53.0483 46.2293 53.1981 46.3971 53.3242 46.5823L53.4037 46.6991L53.5853 46.9169C53.6572 47.0032 53.7361 47.0833 53.8212 47.1566L54.0569 47.4249L54.3127 47.645L54.5685 47.8651L54.8244 48.0852L55.0802 48.3052L55.336 48.5253L55.5918 48.7454L55.9957 49.0273L56.3996 49.3091L57.1736 49.7455L57.8398 50.0236L58.8762 50.4561L59.2394 50.6077C59.6876 50.7948 60.1486 50.9493 60.619 51.0702C60.8299 51.1205 61.2663 51.2271 61.3255 51.2518C61.3848 51.2765 61.9961 51.3806 62.2944 51.4296L63.3775 51.5417L64.1243 51.6268L64.7231 51.6501L65.6582 51.7004L66.4251 51.7373L67.2121 51.7258L68.396 51.5968C69.245 51.4995 70.0794 51.3016 70.8816 51.0072L71.6242 50.7346L72.5321 50.4337L72.7248 50.3518C72.9978 50.2358 73.3055 50.4151 73.3391 50.7097C73.3439 50.7521 73.3548 50.7935 73.3714 50.8328L73.6093 51.3932L74.3708 52.9008L75.2128 54.2153L76.075 55.4816C76.8461 56.4069 77.6876 57.271 78.592 58.0663L78.9501 58.3812L79.3168 58.6635C80.0341 59.2156 80.8204 59.6718 81.6558 60.0204L82.9927 60.5784C83.2833 60.6997 83.594 60.7656 83.9087 60.7727L84.1062 60.7772C84.5079 60.7863 84.9023 60.6687 85.2334 60.4413L85.4246 60.3099C85.6036 60.187 85.7434 60.015 85.827 59.8146C85.9505 59.5187 85.9423 59.1842 85.8043 58.8948L85.7653 58.8129C85.6894 58.6537 85.5827 58.5111 85.4513 58.3935L85.1348 58.1104C84.8477 57.8535 84.5196 57.6465 84.164 57.4981L83.9666 57.4157C83.6186 57.2705 83.2892 57.084 82.9857 56.8602L82.4689 56.4794C82.0551 56.1744 81.6654 55.8382 81.303 55.4736L80.5007 54.6661L79.8462 53.8686C79.2465 53.1377 78.7078 52.3588 78.2356 51.5396L78.0038 51.1374C77.6572 50.5363 77.3638 49.9061 77.1267 49.2539L76.9044 48.6423C76.8048 48.3683 76.6804 48.1038 76.5329 47.8523L76.3525 47.5449C76.1818 47.254 75.9605 46.9959 75.6989 46.7829C75.4879 46.6111 75.2533 46.4707 75.0022 46.3659L74.9257 46.3339C74.5416 46.1736 74.1309 46.0865 73.7148 46.0771C73.2777 46.0672 72.843 46.1433 72.4352 46.3009L71.291 46.7431L69.1927 47.397L67.101 47.827C65.8253 47.9732 64.5395 48.0105 63.2575 47.9387L63.1456 47.9324L61.7059 47.8414L61.3603 47.7892C60.8838 47.7173 60.418 47.5871 59.9733 47.4015C59.3389 47.1367 58.7559 46.7627 58.2507 46.2964L57.9166 45.988C57.6031 45.6987 57.3119 45.386 57.0456 45.0526L56.3265 44.1524C55.4006 42.9933 54.6015 41.7383 53.943 40.409L53.0666 38.3436L53.0076 38.2211C52.7117 37.6067 52.2451 37.0906 51.6635 36.7346L51.5599 36.6711C51.2563 36.4853 50.9209 36.357 50.5708 36.2927C50.1229 36.2105 49.6619 36.2352 49.2254 36.3646L48.6991 36.5207L46.3924 37.2575C44.886 37.6831 43.3373 37.9408 41.7743 38.0259L41.7245 38.0287C40.4647 38.1425 39.1957 38.1009 37.9461 37.9048L37.8698 37.8928C37.0316 37.7277 36.2603 37.32 35.6518 36.7203L35.0284 36.1059C34.6709 35.7536 34.3508 35.3652 34.0733 34.9469L32.4631 32.5202L31.4725 30.5205L30.785 29.0438L30.4195 28.4208C30.2251 28.0895 29.9637 27.8025 29.652 27.578C29.3466 27.3581 28.9994 27.203 28.6318 27.1222L28.5721 27.1091C28.0378 26.9917 27.4818 27.0199 26.9621 27.1909L23.9804 28.1717C22.8079 28.5574 21.591 28.7921 20.3592 28.8701L19.5903 28.9188C19.3756 28.9324 19.161 28.9429 18.9459 28.945C18.3297 28.951 16.9572 28.9396 15.9583 28.7475Z" fill="#F48E54"/>
</svg>
