<svg width="24" height="13" viewBox="0 0 24 13" fill="none" xmlns="http://www.w3.org/2000/svg">
<path d="M5.058 13C4.158 11.056 3.288 9.022 2.448 6.898C1.62 4.774 0.846 2.65 0.126 0.526H2.628C2.916 1.366 3.21 2.224 3.51 3.1C3.81 3.976 4.11 4.84 4.41 5.692C4.71 6.532 5.01 7.348 5.31 8.14C5.61 8.932 5.904 9.658 6.192 10.318C6.468 9.658 6.756 8.938 7.056 8.158C7.356 7.366 7.656 6.544 7.956 5.692C8.268 4.84 8.574 3.976 8.874 3.1C9.174 2.224 9.462 1.366 9.738 0.526H12.168C11.436 2.65 10.656 4.774 9.828 6.898C9 9.022 8.136 11.056 7.236 13H5.058ZM21.2331 13C20.9211 12.52 20.5611 12.016 20.1531 11.488C19.7451 10.96 19.3131 10.45 18.8571 9.958C18.4131 9.466 17.9511 8.998 17.4711 8.554C16.9911 8.11 16.5171 7.726 16.0491 7.402V13H13.7811V0.526H16.0491V5.674C16.4451 5.278 16.8591 4.858 17.2911 4.414C17.7231 3.958 18.1491 3.502 18.5691 3.046C19.0011 2.578 19.4091 2.128 19.7931 1.696C20.1771 1.264 20.5251 0.873999 20.8371 0.526H23.5551C23.1591 0.982 22.7391 1.456 22.2951 1.948C21.8511 2.44 21.3951 2.938 20.9271 3.442C20.4591 3.934 19.9851 4.426 19.5051 4.918C19.0371 5.41 18.5751 5.878 18.1191 6.322C18.6231 6.706 19.1331 7.156 19.6491 7.672C20.1771 8.176 20.6931 8.722 21.1971 9.31C21.7011 9.886 22.1811 10.492 22.6371 11.128C23.1051 11.752 23.5311 12.376 23.9151 13H21.2331Z" fill="#292929"/>
</svg>
